<svg width="38" height="38" viewBox="0 0 38 38" fill="none" xmlns="http://www.w3.org/2000/svg">
<g clip-path="url(#clip0_128_88)" filter="url(#filter0_d_128_88)">
<path d="M33.331 12.3887L29.893 11.5433C29.6861 10.8912 29.4203 10.2587 29.099 9.65373C29.6135 8.79627 30.7012 6.98344 30.7012 6.98344C30.9087 6.63762 30.8542 6.19494 30.569 5.90977L28.0831 3.42387C27.7979 3.13869 27.3552 3.0842 27.0094 3.29168C26.9871 3.30504 25.2061 4.37367 24.336 4.89451C23.7343 4.57629 23.1058 4.31285 22.458 4.10736C22.1985 3.05408 21.6112 0.66873 21.6112 0.66873C21.5145 0.276035 21.1622 0 20.7578 0H17.2422C16.8377 0 16.4854 0.276035 16.3888 0.668789C16.147 1.65082 15.7428 3.29256 15.5421 4.10707C14.8529 4.32562 14.1861 4.60969 13.5498 4.95562C13.1732 4.72969 12.6119 4.39289 12.0927 4.08135L10.7765 3.29168C10.4305 3.0842 9.98805 3.13875 9.70287 3.42387L7.21686 5.90977C6.93168 6.19494 6.87719 6.63762 7.08467 6.98344C7.09639 7.00307 8.12676 8.72039 8.79977 9.84686C8.52367 10.3924 8.29205 10.9593 8.10736 11.5413C6.93537 11.8329 4.69586 12.3821 4.66961 12.3886C4.27645 12.485 4 12.8374 4 13.2422V16.7578C4 17.1626 4.2765 17.515 4.66967 17.6114C4.69563 17.6178 6.91855 18.1628 8.10836 18.4573C8.31725 19.1195 8.58789 19.7623 8.91672 20.378L7.38191 22.9362C7.17443 23.282 7.22893 23.7247 7.5141 24.0098L10.0001 26.4958C10.2852 26.781 10.7279 26.8355 11.0737 26.628C11.0954 26.615 12.8001 25.5922 13.637 25.0912C14.2475 25.4163 14.8858 25.6849 15.544 25.8935L16.3887 29.3306C16.4851 29.7237 16.8375 30 17.2422 30H20.7578C21.1623 30 21.5147 29.7238 21.6113 29.331L22.4566 25.8933C23.1327 25.6788 23.785 25.4017 24.4053 25.0655C25.2506 25.5727 27.0094 26.628 27.0094 26.628C27.3552 26.8355 27.7979 26.7811 28.0831 26.4959L30.569 24.0099C30.8542 23.7247 30.9087 23.2821 30.7012 22.9362C30.7012 22.9362 29.6306 21.1519 29.1216 20.3036C29.4326 19.7125 29.6907 19.0945 29.8928 18.4572C30.9371 18.1995 33.3023 17.6183 33.3308 17.6113C33.7237 17.5148 34 17.1625 34 16.7578V13.2422C34 12.8376 33.7238 12.4853 33.331 12.3887ZM32.2422 16.0687C31.2273 16.3182 29.3873 16.7706 29.0359 16.8585L28.9697 16.8751C28.6632 16.9548 28.4232 17.1933 28.3416 17.4993C28.1192 18.333 27.7853 19.1324 27.3489 19.8752C27.1861 20.1524 27.1876 20.4966 27.3529 20.7724C27.3987 20.8486 28.3191 22.3827 28.8408 23.2522L27.3254 24.7676C26.4438 24.2387 24.8811 23.301 24.8679 23.2931C24.5881 23.1251 24.2384 23.1259 23.9596 23.2951C23.1979 23.7571 22.3712 24.1091 21.5023 24.3413C21.199 24.4223 20.9618 24.6589 20.8804 24.9622C20.8319 25.1427 20.7841 25.3337 20.7832 25.337L20.0688 28.2422H17.9314L17.2978 25.6616L17.1269 24.9782C17.0495 24.6681 16.8096 24.4245 16.5008 24.3421C15.6493 24.115 14.8321 23.771 14.0721 23.3198C13.7962 23.156 13.4528 23.1557 13.1765 23.3188C12.9873 23.4306 11.5796 24.2746 10.7577 24.7677L9.24215 23.2522L10.6871 20.8437C10.8536 20.5662 10.8541 20.2197 10.6884 19.9417C10.2323 19.1763 9.88656 18.3554 9.66098 17.5017C9.57912 17.1919 9.3352 16.9513 9.02447 16.8736C8.39535 16.7163 6.70627 16.3013 5.75775 16.0685V13.9314C6.71529 13.6961 8.42594 13.2752 9.02506 13.1236C9.33391 13.0454 9.57631 12.8062 9.65857 12.4983C9.8674 11.7163 10.1755 10.9615 10.5744 10.255C10.7294 9.98045 10.7254 9.64389 10.564 9.37301C10.1392 8.66016 9.38746 7.40561 8.94496 6.66762L10.4605 5.15203L11.1882 5.58867C12.0653 6.1149 13.0621 6.71297 13.089 6.72908C13.3684 6.89607 13.7172 6.89502 13.9956 6.72621C14.7773 6.2523 15.6201 5.89289 16.5008 5.65793C16.8092 5.57566 17.0488 5.33262 17.1266 5.02301C17.1431 4.95732 17.6581 2.86588 17.931 1.75781H20.069C20.357 2.92723 20.8671 4.99875 20.8732 5.02277C20.9509 5.33262 21.1906 5.5759 21.4993 5.65822C22.342 5.88299 23.1512 6.22225 23.9045 6.6665C24.1807 6.82945 24.5239 6.82898 24.7996 6.66527C25.0462 6.51891 26.4919 5.65201 27.3254 5.15197L28.8408 6.66744C28.3113 7.54998 27.3689 9.1207 27.3294 9.18645C27.1632 9.4633 27.1622 9.809 27.3269 10.0869C27.7738 10.8411 28.115 11.6521 28.341 12.4975C28.422 12.8002 28.6579 13.0369 28.9604 13.1188C29.1418 13.1679 29.3338 13.2159 29.337 13.2167L32.2422 13.9311V16.0687Z" fill="white"/>
</g>
<defs>
<filter id="filter0_d_128_88" x="0" y="0" width="38" height="38" filterUnits="userSpaceOnUse" color-interpolation-filters="sRGB">
<feFlood flood-opacity="0" result="BackgroundImageFix"/>
<feColorMatrix in="SourceAlpha" type="matrix" values="0 0 0 0 0 0 0 0 0 0 0 0 0 0 0 0 0 0 127 0" result="hardAlpha"/>
<feOffset dy="4"/>
<feGaussianBlur stdDeviation="2"/>
<feComposite in2="hardAlpha" operator="out"/>
<feColorMatrix type="matrix" values="0 0 0 0 0 0 0 0 0 0 0 0 0 0 0 0 0 0 0.25 0"/>
<feBlend mode="normal" in2="BackgroundImageFix" result="effect1_dropShadow_128_88"/>
<feBlend mode="normal" in="SourceGraphic" in2="effect1_dropShadow_128_88" result="shape"/>
</filter>
<clipPath id="clip0_128_88">
<rect width="30" height="30" fill="white" transform="translate(4)"/>
</clipPath>
</defs>
</svg>
