<svg width="28" height="28" viewBox="0 0 28 28" fill="none" xmlns="http://www.w3.org/2000/svg">
<g clip-path="url(#clip0_71_295)" filter="url(#filter0_d_71_295)">
<path d="M12.8889 -0.000488281H15.1111V11.1106H12.8889V-0.000488281Z" fill="#FFCF7A"/>
<path d="M19.0009 1.33813L17.888 3.26175C20.2873 4.64948 21.7778 7.23136 21.7778 9.99959C21.7778 14.2884 18.2888 17.7774 14 17.7774C9.71123 17.7774 6.22222 14.2884 6.22222 9.99959C6.22222 7.23136 7.71267 4.64948 10.112 3.26175L8.99913 1.33813C5.91551 3.12199 4 6.44086 4 9.99959C4 15.5135 8.48611 19.9996 14 19.9996C19.5139 19.9996 24 15.5135 24 9.99959C24 6.44086 22.0845 3.12199 19.0009 1.33813Z" fill="#FFCF7A"/>
</g>
<defs>
<filter id="filter0_d_71_295" x="0" y="-0.000488281" width="28" height="28" filterUnits="userSpaceOnUse" color-interpolation-filters="sRGB">
<feFlood flood-opacity="0" result="BackgroundImageFix"/>
<feColorMatrix in="SourceAlpha" type="matrix" values="0 0 0 0 0 0 0 0 0 0 0 0 0 0 0 0 0 0 127 0" result="hardAlpha"/>
<feOffset dy="4"/>
<feGaussianBlur stdDeviation="2"/>
<feComposite in2="hardAlpha" operator="out"/>
<feColorMatrix type="matrix" values="0 0 0 0 0 0 0 0 0 0 0 0 0 0 0 0 0 0 0.25 0"/>
<feBlend mode="normal" in2="BackgroundImageFix" result="effect1_dropShadow_71_295"/>
<feBlend mode="normal" in="SourceGraphic" in2="effect1_dropShadow_71_295" result="shape"/>
</filter>
<clipPath id="clip0_71_295">
<rect width="20" height="20" fill="white" transform="translate(4 -0.000488281)"/>
</clipPath>
</defs>
</svg>
